# xmcd CD database file
#
# Track frame offsets:
#	150
#	37669
#	64809
#	94556
#	120899
#	165009
#
# Disc length: 2451 seconds
#
# Revision: 0
# Processed by: cddbd v1.5.2PL0 Copyright (c) Steve Scherf et al.
# Submitted via: CDex 1.99.1
#
DISCID=31099106
DTITLE=Blakey, Arthur William 'Art' (1919-1990) - Art Blakey 1962 - Three Blind Mice
DYEAR=1962
DGENRE=Jazz
TTITLE0=Three Blind Mice
TTITLE1=Blue Moon
TTITLE2=That Old Feeling
TTITLE3=Plexis
TTITLE4=Up Jumped Spring
TTITLE5=When Lights Are Low
EXTD=YEAR: 1962
EXTT0=
EXTT1=
EXTT2=
EXTT3=
EXTT4=
EXTT5=
PLAYORDER=
